<svg width="124" height="64" viewBox="0 0 124 64" fill="none" xmlns="http://www.w3.org/2000/svg">
<rect width="105" height="64" rx="15" fill="url(#paint0_linear_90_286)"/>
<path d="M37.3068 30.3959L22.5198 46.0509C22.0259 46.5737 21.3667 46.9102 20.6535 47.0038C19.9404 47.0973 19.2167 46.9422 18.6046 46.5644C17.9925 46.1867 17.5293 45.6095 17.2931 44.9301C17.0569 44.2507 17.0622 43.5106 17.308 42.8346L19.6562 36.375H14.1867C13.6556 36.375 13.1327 36.2449 12.6637 35.996C12.1946 35.7471 11.7937 35.387 11.496 34.9473C11.1983 34.5075 11.0129 34.0015 10.9561 33.4736C10.8993 32.9456 10.9727 32.4118 11.17 31.9187L15.6708 20.6677C15.9903 19.8717 16.5405 19.1895 17.2506 18.7085C17.9608 18.2276 18.7985 17.97 19.6562 17.9688H27.4062C29.2817 17.9688 30.5779 19.8423 29.9211 21.5977L28.375 25.7188H35.2899C35.8316 25.7187 36.3615 25.8774 36.814 26.1752C37.2666 26.473 37.622 26.8968 37.8363 27.3943C38.0507 27.8918 38.1146 28.4412 38.0201 28.9747C37.9257 29.5081 37.679 30.0022 37.3068 30.3959Z" fill="white"/>
<rect x="108" y="16" width="16" height="31" rx="8" fill="#2F29E4"/>
<defs>
<linearGradient id="paint0_linear_90_286" x1="8.86114e-07" y1="17.0438" x2="105" y2="62.5627" gradientUnits="userSpaceOnUse">
<stop stop-color="#9C45FF"/>
<stop offset="1" stop-color="#2F29E4"/>
</linearGradient>
</defs>
</svg>
